Coordinates
version=1
nRows=11
nColumns=63
inDegrees=yes

Units are S.I. units (second, meters, Newtons, ...)
If the header above contains a line with 'inDegrees', this indicates whether rotational values are in degrees (yes) or radians (no).

endheader
time	pelvis_tilt	pelvis_list	pelvis_rotation	pelvis_tx	pelvis_ty	pelvis_tz	hip_flexion_r	hip_adduction_r	hip_rotation_r	knee_angle_r	knee_angle_r_beta	ankle_angle_r	subtalar_angle_r	mtp_angle_r	hip_flexion_l	hip_adduction_l	hip_rotation_l	knee_angle_l	knee_angle_l_beta	ankle_angle_l	subtalar_angle_l	mtp_angle_l	L5_S1_Flex_Ext	L5_S1_Lat_Bending	L5_S1_axial_rotation	L4_L5_Flex_Ext	L4_L5_Lat_Bending	L4_L5_axial_rotation	L3_L4_Flex_Ext	L3_L4_Lat_Bending	L3_L4_axial_rotation	L2_L3_Flex_Ext	L2_L3_Lat_Bending	L2_L3_axial_rotation	L1_L2_Flex_Ext	L1_L2_Lat_Bending	L1_L2_axial_rotation	L1_T12_Flex_Ext	L1_T12_Lat_Bending	L1_T12_axial_rotation	Abs_r3	Abs_r2	Abs_r1	Abs_t1	Abs_t2	neck_flexion	neck_bending	neck_rotation	arm_flex_r	arm_add_r	arm_rot_r	elbow_flex_r	pro_sup_r	wrist_flex_r	wrist_dev_r	arm_flex_l	arm_add_l	arm_rot_l	elbow_flex_l	pro_sup_l	wrist_flex_l	wrist_dev_l
      2.54237288	      2.36593444	     -5.36361423	    100.96251796	      0.19806285	      0.96258540	      0.20101843	      7.97107652	      1.46260060	    -19.61126170	     11.74342354	      0.20496141	     29.77722230	     13.54316588	      0.00000000	     11.27838032	     -1.07942942	     -2.55830589	     13.68951701	      0.23892714	     27.62792227	     13.21344987	      0.00000000	      0.29966226	      0.58778031	      0.13791780	      0.55650279	      0.78174781	      0.14653766	      0.49231513	      1.42912904	      0.14653766	      0.34248400	      1.42912904	      0.12067807	      0.27826638	      1.19860160	      0.11205821	      0.17122702	      0.91047170	      0.10343835	      2.14045757	      6.64908840	      0.76705740	      0.00000000	      0.00000000	     27.87016383	      3.42510083	    -10.28486297	     -4.48136610	    -27.01105190	     34.91995698	     41.09676762	     87.30521096	     -3.92709576	      5.79097538	     -0.73641337	    -18.05351964	     33.77815292	     37.63087903	     87.31747099	     -5.66599490	     -0.10771874
      2.55932203	      2.32324855	     -5.11639287	    100.91675257	      0.19770813	      0.96271731	      0.20132687	      7.80663068	      1.45272105	    -19.13348875	     11.96102817	      0.20875932	     29.73887191	     12.79039559	      0.00000000	     10.95384484	     -0.99388214	     -2.11172123	     13.52127340	      0.23599074	     27.67008609	     12.65672081	      0.00000000	      0.28495812	      0.60140444	      0.16968611	      0.52919572	      0.79986790	      0.18029149	      0.46815769	      1.46225475	      0.18029149	      0.32567863	      1.46225475	      0.14847535	      0.26461211	      1.22638393	      0.13786996	      0.16282507	      0.93157547	      0.12726458	      2.03542733	      6.80320728	      0.94374324	      0.00000000	      0.00000000	     27.82897336	      3.41243553	    -10.53564750	     -3.86710767	    -27.46139186	     37.25295085	     41.05502558	     87.86575813	     -4.56303641	      5.73326390	     -0.25024810	    -18.20680267	     35.12168697	     37.56010276	     87.32133787	     -6.09713440	     -0.24500526
      2.57627119	      2.21255447	     -5.09629145	    100.81080380	      0.19749731	      0.96260268	      0.20175740	      8.07152862	      1.06071543	    -20.32170477	     12.63452822	      0.22051412	     30.06955985	     14.31514164	      0.00000000	     10.75558469	     -0.85891728	     -2.19759389	     13.12713564	      0.22911174	     27.73318231	     12.77756719	      0.00000000	      0.30334763	      0.59808140	      0.14765471	      0.56334689	      0.79544826	      0.15688313	      0.49836983	      1.45417512	      0.15688313	      0.34669601	      1.45417512	      0.12919788	      0.28168861	      1.21960759	      0.11996946	      0.17333284	      0.92642809	      0.11074104	      2.16678181	      6.76561642	      0.82121123	      0.00000000	      0.00000000	     27.77065533	      3.56264692	    -10.91149823	     -2.44956190	    -28.05344321	     42.64548793	     40.57406562	     88.19405073	     -8.54030493	      4.30604770	     -0.51054476	    -18.19250784	     34.55152206	     37.88467418	     87.41609915	     -6.30390440	      0.32516173
      2.59322034	      2.16469422	     -5.02180239	    100.81084011	      0.19746415	      0.96253698	      0.20233708	      8.05923160	      1.02697269	    -20.30413059	     12.64465553	      0.22069087	     30.08856902	     14.32338077	      0.00000000	     10.75045902	     -0.81826976	     -2.18799218	     13.12182677	      0.22901908	     27.75069649	     12.78556505	      0.00000000	      0.31139167	      0.60603305	      0.14789809	      0.57828547	      0.80602396	      0.15714173	      0.51158538	      1.47350876	      0.15714173	      0.35588954	      1.47350876	      0.12941083	      0.28915831	      1.23582260	      0.12016720	      0.17792920	      0.93874520	      0.11092357	      2.22423958	      6.85556709	      0.82256483	      0.00000000	      0.00000000	     27.76680572	      3.56563524	    -10.91775821	     -2.48183737	    -27.98027381	     42.69209633	     40.59193144	     88.21334035	     -8.53928159	      4.29607149	     -0.45194009	    -18.17836277	     34.54032050	     37.91299674	     87.41567378	     -6.30428314	      0.32023182
      2.61016949	      1.97046766	     -4.90788600	    100.66821881	      0.19714818	      0.96259951	      0.20272137	      8.32457580	      0.61025843	    -20.38794053	     13.38082469	      0.23353945	     30.71712465	     15.11573252	      0.00000000	     10.32669006	     -0.53876193	     -1.68663583	     12.54616193	      0.21897183	     27.73984164	     12.26443537	      0.00000000	      0.31511584	      0.59530098	      0.13726722	      0.58520163	      0.79175030	      0.14584642	      0.51770381	      1.44741480	      0.14584642	      0.36014589	      1.44741480	      0.12010882	      0.29261657	      1.21393776	      0.11152962	      0.18005719	      0.92212122	      0.10295042	      2.25084093	      6.73416374	      0.76343911	      0.00000000	      0.00000000	     27.66755511	      3.67544932	    -11.42780323	     -0.62066161	    -28.54198021	     49.95388057	     39.26062703	     88.42438199	    -14.88271498	     -0.35291601	     -0.54208221	    -18.18269469	     34.32873543	     37.96639276	     87.28994936	     -6.02888808	      0.50453116
      2.62711864	      1.93399245	     -4.83802989	    100.66798563	      0.19699583	      0.96251520	      0.20301516	      8.37317499	      0.55567746	    -20.17633021	     13.47629168	      0.23520566	     31.00096169	     15.24910567	      0.00000000	     10.23375474	     -0.49412214	     -1.66923867	     12.44713265	      0.21724345	     27.87261161	     12.26412673	      0.00000000	      0.32901531	      0.60239197	      0.12260652	      0.61101433	      0.80118131	      0.13026943	      0.54053925	      1.46465583	      0.13026943	      0.37603160	      1.46465583	      0.10728071	      0.30552361	      1.22839770	      0.09961780	      0.18799935	      0.93310516	      0.09195489	      2.35012344	      6.81437840	      0.68190070	      0.00000000	      0.00000000	     27.66002679	      3.78955790	    -11.58124060	     -0.67423647	    -28.58760708	     50.03303999	     39.41032952	     88.45022524	    -14.95617349	     -0.54112239	     -0.55442957	    -18.12603085	     34.32521920	     37.87998110	     87.24538250	     -5.97485739	      0.52585915
      2.64406780	      1.78976566	     -4.83200769	    100.26885351	      0.19732051	      0.96240421	      0.20331767	      8.71490447	      0.28937190	    -20.07763230	     14.03015886	      0.24487247	     31.35345001	     15.71980663	      0.00000000	      9.93884081	     -0.33074095	     -1.66720520	     11.96947572	      0.20890676	     27.71601137	     11.87652402	      0.00000000	      0.34550711	      0.59236909	      0.23652227	      0.64164125	      0.78785089	      0.25130491	      0.56763363	      1.44028621	      0.25130491	      0.39488007	      1.44028621	      0.20695699	      0.32083790	      1.20795905	      0.19217435	      0.19742276	      0.91757973	      0.17739170	      2.46792273	      6.70099766	      1.31546592	      0.00000000	      0.00000000	     27.66691699	      3.82396661	    -12.50799134	     -0.82326615	    -28.57764895	     50.94253032	     38.92654639	     88.29054678	    -16.88221755	     -3.58835800	     -0.37757719	    -18.05901929	     34.31569223	     37.68493026	     87.00000254	     -4.91610766	      0.51942264
      2.66101695	      1.75350284	     -4.76598173	    100.27276577	      0.19713459	      0.96227713	      0.20357443	      8.75269047	      0.22204939	    -20.00567170	     14.16625435	      0.24724778	     31.58715729	     15.76796357	      0.00000000	      9.79598652	     -0.28311924	     -1.64707443	     11.82304828	      0.20635112	     27.73767117	     11.90570798	      0.00000000	      0.35905128	      0.59903282	      0.24970086	      0.66679413	      0.79671365	      0.26530717	      0.58988534	      1.45648839	      0.26530717	      0.41035970	      1.45648839	      0.21848825	      0.33341502	      1.22154772	      0.20288195	      0.20516190	      0.92790183	      0.18727565	      2.56466737	      6.77637903	      1.38876129	      0.00000000	      0.00000000	     27.68958166	      4.00018711	    -12.72078608	     -0.99113588	    -28.69002498	     51.14512318	     39.15603276	     88.26269325	    -16.70946964	     -3.80858294	     -0.36381829	    -17.98249874	     34.36806439	     37.63650256	     86.94844538	     -4.85646419	      0.49953559
      2.67796610	      1.72231821	     -4.69446585	    100.32111578	      0.19700653	      0.96218540	      0.20381726	      8.72017482	      0.16959669	    -20.01191715	     14.22079155	      0.24819963	     31.61759541	     15.76463418	      0.00000000	      9.71497985	     -0.24879278	     -1.65986877	     11.80879899	      0.20610242	     27.66187128	     11.91815886	      0.00000000	      0.36920942	      0.60842366	      0.26723083	      0.68565881	      0.80920347	      0.28393276	      0.60657415	      1.47932130	      0.28393276	      0.42196944	      1.47932130	      0.23382698	      0.34284786	      1.24069754	      0.21712505	      0.21096626	      0.94244826	      0.20042313	      2.63722594	      6.88261018	      1.48625773	      0.00000000	      0.00000000	     27.74118511	      4.04791883	    -12.78434554	     -1.19949702	    -28.64819944	     51.30514714	     39.16677680	     88.27681899	    -16.58679571	     -3.84752486	     -0.36036023	    -17.93217544	     34.41155419	     37.67005137	     86.94406607	     -4.83330360	      0.48096029
      2.69491525	      1.67984677	     -4.66459666	    100.05746203	      0.19675634	      0.96200632	      0.20401724	      8.87999853	      0.01724720	    -20.08830390	     14.57358582	      0.25435706	     31.73415110	     15.90303560	      0.00000000	      9.35197584	     -0.18031220	     -1.79412008	     11.25435216	      0.19642550	     27.48031710	     12.03786589	      0.00000000	      0.38763536	      0.61738712	      0.36816299	      0.71987762	      0.82112487	      0.39117318	      0.63684613	      1.50111504	      0.39117318	      0.44302845	      1.50111504	      0.32214262	      0.35995819	      1.25897581	      0.29913243	      0.22149484	      0.95633264	      0.27612224	      2.76884060	      6.98400655	      2.04761212	      0.00000000	      0.00000000	     27.79720495	      4.49638750	    -13.72051455	     -1.12928328	    -29.00896567	     52.39159697	     39.25516741	     88.34559371	    -14.97229063	     -4.16296884	     -0.05781438	    -17.87398852	     35.20900477	     37.47148914	     87.02561079	     -4.68565496	      0.41382803
      2.71186441	      1.62644449	     -4.58719725	    100.12386344	      0.19654704	      0.96184629	      0.20408055	      8.77071422	     -0.06259615	    -20.18311278	     14.60363392	      0.25488149	     31.75116788	     15.84880759	      0.00000000	      9.27776338	     -0.12130387	     -1.80706690	     11.28916350	      0.19703307	     27.40100928	     12.05877740	      0.00000000	      0.39887502	      0.63021668	      0.40894278	      0.74075080	      0.83818819	      0.43450170	      0.65531177	      1.53230884	      0.43450170	      0.45587426	      1.53230884	      0.35782493	      0.37039534	      1.28513786	      0.33226601	      0.22791719	      0.97620564	      0.30670709	      2.84912439	      7.12913716	      2.27441706	      0.00000000	      0.00000000	     27.88098931	      4.47222682	    -13.75350956	     -1.37128049	    -28.90297847	     52.65132258	     39.04567152	     88.38886940	    -14.75591743	     -4.07953442	     -0.05207854	    -17.79487597	     35.29858247	     37.56506212	     87.02070277	     -4.69631099	      0.36665145
